<?xml version="1.0" encoding="iso-8859-1"?>
<!-- Generator: Adobe Illustrator 19.0.0, SVG Export Plug-In . SVG Version: 6.00 Build 0)  -->
<svg version="1.1" id="Capa_1" xmlns="http://www.w3.org/2000/svg" xmlns:xlink="http://www.w3.org/1999/xlink" x="0px" y="0px"
	 viewBox="0 0 512 512" style="enable-background:new 0 0 512 512;" xml:space="preserve">
<g>
	<g>
		<path d="M416.203,201.483l-33.52-73.741l33.519-73.74c2.193-4.825,1.79-10.365-1.08-14.821c-2.869-4.456-7.746-7.116-13.046-7.116
			h-155.89c-4.142,0-7.5,3.358-7.5,7.5v24.564h-89.209V45.832c9.308-3.139,16.032-11.946,16.032-22.3
			C165.511,10.557,154.954,0,141.978,0c-12.976,0-23.532,10.557-23.532,23.532c0,10.353,6.724,19.16,16.032,22.3v419.104H117.93
			c-12.976,0-23.532,10.557-23.532,23.532V504.5c0,4.142,3.358,7.5,7.5,7.5h80.161c4.142,0,7.5-3.358,7.5-7.5v-16.032
			c0-12.976-10.557-23.532-23.532-23.532h-16.548V255.484h136.79c8.556,0,15.516-6.96,15.516-15.516V223.42h100.293
			c5.3,0,10.177-2.66,13.046-7.116C417.992,211.848,418.396,206.308,416.203,201.483z M133.446,23.532
			c0-4.704,3.828-8.532,8.532-8.532c4.705,0,8.532,3.828,8.532,8.532c0,4.704-3.828,8.532-8.532,8.532
			C137.274,32.064,133.446,28.236,133.446,23.532z M166.027,479.936c4.704,0,8.532,3.827,8.532,8.532V497h-65.161v-8.532
			c0-4.705,3.828-8.532,8.532-8.532H166.027z M253.688,53.578l15.826,10.551h-15.826V53.578z M286.785,239.968h-0.001
			c0,0.285-0.231,0.516-0.516,0.516H181.543V119.729c0-4.142-3.358-7.5-7.5-7.5c-4.142,0-7.5,3.358-7.5,7.5v120.754h-17.064V79.129
			h17.064v8.53c0,4.142,3.358,7.5,7.5,7.5c4.142,0,7.5-3.358,7.5-7.5v-8.53h105.242V239.968z M402.512,208.183
			c-0.152,0.237-0.335,0.237-0.434,0.237H301.784V71.629c0-2.603-1.327-4.894-3.34-6.239v-0.001l-27.486-18.324h131.119
			c0.099,0,0.282,0,0.434,0.237s0.077,0.403,0.036,0.493l-34.929,76.844c-0.896,1.972-0.896,4.235,0,6.207l34.929,76.844
			C402.588,207.779,402.664,207.946,402.512,208.183z"/>
	</g>
</g>
<g>
</g>
<g>
</g>
<g>
</g>
<g>
</g>
<g>
</g>
<g>
</g>
<g>
</g>
<g>
</g>
<g>
</g>
<g>
</g>
<g>
</g>
<g>
</g>
<g>
</g>
<g>
</g>
<g>
</g>
</svg>
